**ABCDEFGHIJKLMNOPQRSTUVWXYZabcdefghijklmnopqrstuvwxyz**************************
**PARASOLID !"#$%&'()*+,-./:;<=>?@[\]^_`{|}~0123456789**************************
**PART1;
MC=unknown;
MC_MODEL=unknown;
MC_ID=unknown;
OS=unknown;
OS_RELEASE=unknown;
FRU=Parasolid 34.1.198;
APPL=Onshape;
SITE=unknown;
USER=unknown;
FORMAT=text;
GUISE=transmit;
KEY=BTGapi::writeModels_.xmt;
FILE=BTGapi::writeModels_.xmt;
DATE=2022-05-10T06:37:18 (UTC);
**PART2;
SCH=SCH_3401198_34101;
USFLD_SIZE=0;
**PART3;
**END_OF_HEADER*****************************************************************
T51 : TRANSMIT FILE created by modeller version 340119823 SCH_3401198_34101_1300
6231 0 12 36 CCCI7 lattice222 0 CCCI4 mesh1006 0 I8 polyline1008 0 CCCCCCCDI5 ow
ner1040 0 CCCI16 boundary_lattice222 0 CCCI13 boundary_mesh1006 0 I17 boundary_p
olyline1008 0 CCCA16 index_map_offset0 0 1 dA9 index_map82 0 A17 node_id_index_m
ap82 0 A20 schema_embedding_map82 0 A5 child12 0 A14 lowest_node_id0 0 1 dA16 me
sh_offset_data206 0 Z1 81 2 3 0 0 0 0 0 0 0 1e3 1e-8 0 4 0 1 0 1 1 5 0 6 7 8 0 0
 9 10 11 0 0 0 0 0 0 0 81 255 1 2 79 12 1 13 0 0 0 14 70 11 CI9 list_type0 0 1 u
I10 notransmit0 0 1 lCCCDCCDI12 finger_index0 0 1 dI12 finger_block1012 0 CZ3 0
 4 T1 0 0 5 20 1 15 15 13 255 5 39 0 1 0 16 0 0 17 0 50 255 6 65 0 16 18 0 0 +-.
0206283014267683 0 3469446951953615e-33 0 0 1 1 0 0 31 255 7 66 0 10 0 0 0 +0 0
 693889390390723e-32 0 0 -1 -1 0 0 .0412566028535366 29 255 8 29 0 11 0 0 104083
4085586084e-32 0 .053587231785059 19 9 CCCCCCI5 frame230 0 CA5 owner12 0 Z9 46 0
 1 17 0 19 0 V0 16 255 10 48 20 ?21 0 0 7 0 0 1 18 255 11 27 22 23 0 0 8 ?1 81 1
 22 72 24 11 0 0 0 20 25 17 255 23 0 26 23 23 11 0 0 0 0 ?15 255 26 52 0 23 27 0
 14 255 27 53 28 ?0 16 29 5 18 -0 0 0 16 19 81 1 28 81 30 27 31 0 32 0 33 14 16
 61 32 ?27 0 34 5 6 -0 0 27 0 19 15 29 70 0 35 27 26 52 255 18 64 0 27 0 6 0 -0
 0 .053587231785059 0 0 -1 1040834085586084e-32 .61004193410741 .792369130286188
 -1 0 0 13 19 45 0 0 0 0 0 0 9 16 17 35 0 29 35 35 0 21 10 0 0 -17 21 0 34 21 21
 0 35 10 0 0 +15 34 60 0 21 16 0 81 1 32 80 30 16 36 0 0 28 37 80 7 CCCCCDI12 le
gal_owners0 16 1 lCZ1 30 0 38 8001 0 0 0 0 3 5 0 0 0 FFFFTFTFFFFFFFFF2 81 1 36 7
5 24 16 0 32 31 39 40 83 255 3 37 .615686274509804 .811764705882353 .92941176470
5882 80 1 24 41 42 9000 0 0 0 0 3 6 0 0 0 FFTFTFTTFFFFFFFF1 81 1 31 74 24 27 0 2
8 20 36 43 81 1 39 76 24 1 0 44 36 0 45 82 255 3 40 6 1 2 81 1 44 77 46 1 39 13
 0 0 47 82 3 45 6 0 3 80 1 46 48 49 8038 0 0 0 0 0 0 0 0 0 TTTTTTTTTTTTTFTF10 81
 1 13 78 48 1 44 2 0 0 50 98 255 6 47 80 97 114 116 32 49 80 1 48 51 52 8017 0 0
 0 0 0 0 0 0 0 TTTTTTTTTTTTTFTF3 84 255 6 50 Part 179 255 13 52 SDL/TYSA_NAME79
 14 49 SDL/TYSA_UNAME81 1 20 73 24 10 0 0 22 31 53 82 3 43 6 0 2 82 3 53 6 0 1 7
9 9 42 BTI/DetId79 15 38 SDL/TYSA_COLOUR83 3 33 .615686274509804 .81176470588235
3 .929411764705882 82 3 25 6 0 0 19 17 38 0 1 0 9 5 0 S0 74 4 CI16 index_map_off
set0 0 1 dCCZ20 15 5 0 0 39 44 13 2 28 0 0 0 0 0 0 0 0 0 0 0 0 0 0 0 80 1 12 30
 54 8040 0 0 0 0 3 5 0 0 0 TTTFFFFFFFFFFFFF2 83 3 14 .615686274509804 .811764705
882353 .929411764705882 79 17 54 SDL/TYSA_COLOUR_21 0 
