**ABCDEFGHIJKLMNOPQRSTUVWXYZabcdefghijklmnopqrstuvwxyz**************************
**PARASOLID !"#$%&'()*+,-./:;<=>?@[\]^_`{|}~0123456789**************************
**PART1;
MC=unknown;
MC_MODEL=unknown;
MC_ID=unknown;
OS=unknown;
OS_RELEASE=unknown;
FRU=Parasolid 34.1.198;
APPL=Onshape;
SITE=unknown;
USER=unknown;
FORMAT=text;
GUISE=transmit;
KEY=BTGapi::writeModels_.xmt;
FILE=BTGapi::writeModels_.xmt;
DATE=2022-05-10T07:32:48 (UTC);
**PART2;
SCH=SCH_3401198_34101;
USFLD_SIZE=0;
**PART3;
**END_OF_HEADER*****************************************************************
T51 : TRANSMIT FILE created by modeller version 340119823 SCH_3401198_34101_1300
6231 0 12 36 CCCI7 lattice222 0 CCCI4 mesh1006 0 I8 polyline1008 0 CCCCCCCDI5 ow
ner1040 0 CCCI16 boundary_lattice222 0 CCCI13 boundary_mesh1006 0 I17 boundary_p
olyline1008 0 CCCA16 index_map_offset0 0 1 dA9 index_map82 0 A17 node_id_index_m
ap82 0 A20 schema_embedding_map82 0 A5 child12 0 A14 lowest_node_id0 0 1 dA16 me
sh_offset_data206 0 Z1 128 2 3 0 0 0 0 0 0 0 1e3 1e-8 0 4 5 1 0 1 1 6 0 7 8 0 0
 0 9 10 0 0 0 0 0 0 0 0 81 255 1 2 125 11 1 12 0 0 0 13 70 11 CI9 list_type0 0 1
 uI10 notransmit0 0 1 lCCCDCCDI12 finger_index0 0 1 dI12 finger_block1012 0 CZ3
 0 4 T1 0 0 5 20 1 14 14 13 255 6 39 0 1 0 15 0 0 16 0 50 255 7 65 0 17 18 0 0 +
-.0206283014267683 0 3469446951953615e-33 0 0 1 1 0 0 31 255 8 80 0 10 19 0 0 +0
 0 .049022 0 0 1 1 0 0 .00351475432517182 19 9 CCCCCCI5 frame230 0 CA5 owner12 0
 Z9 46 0 1 16 0 20 0 V0 16 255 10 77 21 ?22 0 23 8 0 0 1 81 1 21 119 24 10 0 0 2
5 26 27 17 255 22 0 28 22 22 0 29 10 0 0 +16 23 48 30 ?31 10 0 19 0 0 1 81 1 30
 73 24 23 0 0 0 25 32 17 31 0 33 31 31 0 34 23 0 0 +31 19 66 0 23 0 8 0 +0 0 693
889390390723e-32 0 0 -1 -1 0 0 .0412566028535366 15 255 33 60 0 31 17 0 17 34 0
 35 34 34 0 31 23 0 0 -15 35 70 0 34 15 36 14 255 15 53 37 ?17 0 35 6 18 -0 0 17
 0 20 15 36 79 0 29 15 0 17 29 0 36 29 29 0 22 10 0 0 -81 1 37 126 38 15 39 0 0
 40 41 14 17 61 40 ?42 15 33 6 7 -0 0 42 15 20 52 255 18 64 0 15 43 7 0 -0 0 .05
3587231785059 0 0 -1 1040834085586084e-32 .61004193410741 .792369130286188 -1 0
 0 13 20 45 0 0 0 0 0 0 9 15 50 43 102 0 42 0 18 0 +0 0 .049022 0 0 1 1 0 0 14 4
2 97 44 ?0 17 28 6 43 +0 0 0 17 20 81 1 44 128 38 42 26 0 40 0 45 15 28 94 0 22
 42 0 80 7 CCCCCDI12 legal_owners0 16 1 lCZ1 38 0 46 8001 0 0 0 0 3 5 0 0 0 FFFF
TFTFFFFFFFFF2 81 1 26 120 24 42 0 44 21 39 47 81 1 40 127 38 17 25 0 37 44 48 83
 255 3 45 .615686274509804 .811764705882353 .929411764705882 81 1 25 75 24 17 0
 40 30 21 49 83 3 48 .615686274509804 .811764705882353 .929411764705882 80 1 24
 50 51 9000 0 0 0 0 3 6 0 0 0 FFTFTFTTFFFFFFFF1 82 255 3 49 6 1 2 79 255 9 51 BT
I/DetId81 1 39 121 24 15 0 37 26 52 53 82 3 47 8 0 2 81 1 52 122 24 1 0 54 39 0
 55 82 3 53 8 1 2 81 1 54 123 56 1 52 12 0 0 57 82 3 55 8 0 3 80 1 56 58 59 8038
 0 0 0 0 0 0 0 0 0 TTTTTTTTTTTTTFTF10 81 1 12 124 58 1 54 2 0 0 60 98 255 6 57 8
0 97 114 116 32 49 80 1 58 61 62 8017 0 0 0 0 0 0 0 0 0 TTTTTTTTTTTTTFTF3 84 255
 6 60 Part 179 13 62 SDL/TYSA_NAME79 14 59 SDL/TYSA_UNAME79 15 46 SDL/TYSA_COLOU
R83 3 41 .615686274509804 .811764705882353 .929411764705882 82 3 32 6 0 1 82 3 2
7 8 0 1 19 16 38 0 1 0 9 6 0 S0 74 4 CI16 index_map_offset0 0 1 dCCZ20 14 5 0 0
 52 54 12 2 44 0 0 0 0 0 0 0 0 0 0 0 0 0 0 0 80 1 11 38 63 8040 0 0 0 0 3 5 0 0
 0 TTTFFFFFFFFFFFFF2 83 3 13 .615686274509804 .811764705882353 .929411764705882
 79 17 63 SDL/TYSA_COLOUR_21 0 
